<mxfile host="app.diagrams.net" agent="Mozilla/5.0 (Macintosh; Intel Mac OS X 10_15_7) AppleWebKit/537.36 (KHTML, like Gecko) Chrome/129.0.0.0 Safari/537.36" version="24.7.17" pages="2">
  <diagram name="Archetecture" id="PZ-tmw5lXGtG7qs85VaL">
    <mxGraphModel dx="1434" dy="725" grid="1" gridSize="10" guides="1" tooltips="1" connect="1" arrows="1" fold="1" page="1" pageScale="1" pageWidth="827" pageHeight="1169" math="0" shadow="0">
      <root>
        <mxCell id="0" />
        <mxCell id="1" parent="0" />
        <mxCell id="e2AFh_ndy3iAakVpakJK-13" value="BE Server" style="rounded=1;arcSize=10;dashed=1;fillColor=none;gradientColor=none;dashPattern=1 1;strokeWidth=2;verticalAlign=top;" parent="1" vertex="1">
          <mxGeometry x="380" y="260" width="280" height="160" as="geometry" />
        </mxCell>
        <mxCell id="e2AFh_ndy3iAakVpakJK-26" style="edgeStyle=orthogonalEdgeStyle;rounded=0;orthogonalLoop=1;jettySize=auto;html=1;exitX=0;exitY=0.75;exitDx=0;exitDy=0;entryX=1;entryY=0.75;entryDx=0;entryDy=0;dashed=1;" parent="1" source="e2AFh_ndy3iAakVpakJK-2" target="e2AFh_ndy3iAakVpakJK-9" edge="1">
          <mxGeometry relative="1" as="geometry" />
        </mxCell>
        <mxCell id="e2AFh_ndy3iAakVpakJK-30" value="9.Got the config json" style="edgeLabel;html=1;align=center;verticalAlign=middle;resizable=0;points=[];" parent="e2AFh_ndy3iAakVpakJK-26" vertex="1" connectable="0">
          <mxGeometry x="-0.0221" y="1" relative="1" as="geometry">
            <mxPoint as="offset" />
          </mxGeometry>
        </mxCell>
        <mxCell id="e2AFh_ndy3iAakVpakJK-35" style="edgeStyle=orthogonalEdgeStyle;rounded=0;orthogonalLoop=1;jettySize=auto;html=1;exitX=0.5;exitY=1;exitDx=0;exitDy=0;dashed=1;entryX=0.5;entryY=0;entryDx=0;entryDy=0;" parent="1" source="e2AFh_ndy3iAakVpakJK-2" target="e2AFh_ndy3iAakVpakJK-5" edge="1">
          <mxGeometry relative="1" as="geometry">
            <mxPoint x="440" y="320" as="targetPoint" />
          </mxGeometry>
        </mxCell>
        <mxCell id="e2AFh_ndy3iAakVpakJK-36" value="5. Got the existing data" style="edgeLabel;html=1;align=center;verticalAlign=middle;resizable=0;points=[];" parent="e2AFh_ndy3iAakVpakJK-35" vertex="1" connectable="0">
          <mxGeometry x="0.1911" y="1" relative="1" as="geometry">
            <mxPoint as="offset" />
          </mxGeometry>
        </mxCell>
        <mxCell id="e2AFh_ndy3iAakVpakJK-2" value="Google Sheets Service" style="rounded=0;whiteSpace=wrap;html=1;" parent="1" vertex="1">
          <mxGeometry x="414" y="90" width="120" height="60" as="geometry" />
        </mxCell>
        <mxCell id="e2AFh_ndy3iAakVpakJK-12" value="" style="rounded=0;orthogonalLoop=1;jettySize=auto;html=1;entryX=0.049;entryY=0.66;entryDx=0;entryDy=0;entryPerimeter=0;" parent="1" source="e2AFh_ndy3iAakVpakJK-3" target="e2AFh_ndy3iAakVpakJK-10" edge="1">
          <mxGeometry relative="1" as="geometry">
            <mxPoint x="177" y="249" as="targetPoint" />
          </mxGeometry>
        </mxCell>
        <mxCell id="e2AFh_ndy3iAakVpakJK-15" value="1.Create new or edit existing data" style="edgeLabel;html=1;align=center;verticalAlign=middle;resizable=0;points=[];" parent="e2AFh_ndy3iAakVpakJK-12" vertex="1" connectable="0">
          <mxGeometry x="-0.1648" relative="1" as="geometry">
            <mxPoint x="87" y="-10" as="offset" />
          </mxGeometry>
        </mxCell>
        <mxCell id="e2AFh_ndy3iAakVpakJK-24" value="" style="edgeStyle=none;rounded=0;orthogonalLoop=1;jettySize=auto;html=1;entryX=0;entryY=0.75;entryDx=0;entryDy=0;" parent="1" source="e2AFh_ndy3iAakVpakJK-3" target="e2AFh_ndy3iAakVpakJK-9" edge="1">
          <mxGeometry relative="1" as="geometry">
            <mxPoint x="79" y="121" as="targetPoint" />
          </mxGeometry>
        </mxCell>
        <mxCell id="e2AFh_ndy3iAakVpakJK-27" value="7.Click the download config button" style="edgeLabel;html=1;align=center;verticalAlign=middle;resizable=0;points=[];" parent="e2AFh_ndy3iAakVpakJK-24" vertex="1" connectable="0">
          <mxGeometry x="-0.1392" y="3" relative="1" as="geometry">
            <mxPoint y="4" as="offset" />
          </mxGeometry>
        </mxCell>
        <mxCell id="e2AFh_ndy3iAakVpakJK-3" value="Game Designers" style="sketch=0;outlineConnect=0;fontColor=#232F3E;gradientColor=none;fillColor=#232F3D;strokeColor=none;dashed=0;verticalLabelPosition=bottom;verticalAlign=top;align=center;html=1;fontSize=12;fontStyle=0;aspect=fixed;pointerEvents=1;shape=mxgraph.aws4.authenticated_user;" parent="1" vertex="1">
          <mxGeometry x="40" y="210" width="78" height="78" as="geometry" />
        </mxCell>
        <mxCell id="e2AFh_ndy3iAakVpakJK-18" style="edgeStyle=orthogonalEdgeStyle;rounded=0;orthogonalLoop=1;jettySize=auto;html=1;exitX=1;exitY=0.5;exitDx=0;exitDy=0;" parent="1" source="e2AFh_ndy3iAakVpakJK-5" target="e2AFh_ndy3iAakVpakJK-14" edge="1">
          <mxGeometry relative="1" as="geometry" />
        </mxCell>
        <mxCell id="e2AFh_ndy3iAakVpakJK-19" value="3.Save local data" style="edgeLabel;html=1;align=center;verticalAlign=middle;resizable=0;points=[];" parent="e2AFh_ndy3iAakVpakJK-18" vertex="1" connectable="0">
          <mxGeometry x="-0.2754" relative="1" as="geometry">
            <mxPoint x="19" y="46" as="offset" />
          </mxGeometry>
        </mxCell>
        <mxCell id="e2AFh_ndy3iAakVpakJK-21" style="edgeStyle=orthogonalEdgeStyle;rounded=0;orthogonalLoop=1;jettySize=auto;html=1;exitX=0.75;exitY=0;exitDx=0;exitDy=0;entryX=0.75;entryY=1;entryDx=0;entryDy=0;" parent="1" source="e2AFh_ndy3iAakVpakJK-5" target="e2AFh_ndy3iAakVpakJK-2" edge="1">
          <mxGeometry relative="1" as="geometry" />
        </mxCell>
        <mxCell id="e2AFh_ndy3iAakVpakJK-22" value="6.Publish the data" style="edgeLabel;html=1;align=center;verticalAlign=middle;resizable=0;points=[];" parent="e2AFh_ndy3iAakVpakJK-21" vertex="1" connectable="0">
          <mxGeometry x="0.1748" y="-2" relative="1" as="geometry">
            <mxPoint x="44" y="-17" as="offset" />
          </mxGeometry>
        </mxCell>
        <mxCell id="e2AFh_ndy3iAakVpakJK-33" style="edgeStyle=orthogonalEdgeStyle;rounded=0;orthogonalLoop=1;jettySize=auto;html=1;entryX=0.25;entryY=1;entryDx=0;entryDy=0;exitX=0.25;exitY=0;exitDx=0;exitDy=0;" parent="1" source="e2AFh_ndy3iAakVpakJK-5" target="e2AFh_ndy3iAakVpakJK-2" edge="1">
          <mxGeometry relative="1" as="geometry">
            <mxPoint x="440" y="310" as="sourcePoint" />
          </mxGeometry>
        </mxCell>
        <mxCell id="e2AFh_ndy3iAakVpakJK-34" value="4. Load existing data" style="edgeLabel;html=1;align=center;verticalAlign=middle;resizable=0;points=[];" parent="e2AFh_ndy3iAakVpakJK-33" vertex="1" connectable="0">
          <mxGeometry x="0.1829" relative="1" as="geometry">
            <mxPoint as="offset" />
          </mxGeometry>
        </mxCell>
        <mxCell id="e2AFh_ndy3iAakVpakJK-5" value="Content Tools Backend" style="rounded=0;whiteSpace=wrap;html=1;" parent="1" vertex="1">
          <mxGeometry x="414" y="314" width="120" height="60" as="geometry" />
        </mxCell>
        <mxCell id="e2AFh_ndy3iAakVpakJK-25" style="edgeStyle=none;rounded=0;orthogonalLoop=1;jettySize=auto;html=1;exitX=1;exitY=0.5;exitDx=0;exitDy=0;entryX=0;entryY=0.5;entryDx=0;entryDy=0;" parent="1" source="e2AFh_ndy3iAakVpakJK-9" target="e2AFh_ndy3iAakVpakJK-2" edge="1">
          <mxGeometry relative="1" as="geometry" />
        </mxCell>
        <mxCell id="e2AFh_ndy3iAakVpakJK-29" value="8. Download the config json" style="edgeLabel;html=1;align=center;verticalAlign=middle;resizable=0;points=[];" parent="e2AFh_ndy3iAakVpakJK-25" vertex="1" connectable="0">
          <mxGeometry x="-0.1515" y="-1" relative="1" as="geometry">
            <mxPoint x="5" y="-11" as="offset" />
          </mxGeometry>
        </mxCell>
        <mxCell id="e2AFh_ndy3iAakVpakJK-9" value="Unity Editor" style="image;aspect=fixed;perimeter=ellipsePerimeter;html=1;align=center;shadow=0;dashed=0;fontColor=#4277BB;labelBackgroundColor=default;fontSize=12;spacingTop=3;image=img/lib/ibm/devops/code_editor.svg;" parent="1" vertex="1">
          <mxGeometry x="200" y="90" width="60" height="60" as="geometry" />
        </mxCell>
        <mxCell id="e2AFh_ndy3iAakVpakJK-16" value="" style="edgeStyle=orthogonalEdgeStyle;rounded=0;orthogonalLoop=1;jettySize=auto;html=1;entryX=0;entryY=0.5;entryDx=0;entryDy=0;" parent="1" source="e2AFh_ndy3iAakVpakJK-10" target="e2AFh_ndy3iAakVpakJK-5" edge="1">
          <mxGeometry relative="1" as="geometry" />
        </mxCell>
        <mxCell id="e2AFh_ndy3iAakVpakJK-17" value="2.Call rest APIs" style="edgeLabel;html=1;align=center;verticalAlign=middle;resizable=0;points=[];" parent="e2AFh_ndy3iAakVpakJK-16" vertex="1" connectable="0">
          <mxGeometry x="-0.2237" relative="1" as="geometry">
            <mxPoint as="offset" />
          </mxGeometry>
        </mxCell>
        <mxCell id="e2AFh_ndy3iAakVpakJK-10" value="Content Tools Frontend&lt;div&gt;(BE Dashboard)&lt;/div&gt;" style="image;aspect=fixed;html=1;points=[];align=center;fontSize=12;image=img/lib/azure2/general/Dashboard.svg;" parent="1" vertex="1">
          <mxGeometry x="200" y="320" width="68" height="48" as="geometry" />
        </mxCell>
        <mxCell id="e2AFh_ndy3iAakVpakJK-14" value="Database" style="strokeWidth=2;html=1;shape=mxgraph.flowchart.database;whiteSpace=wrap;" parent="1" vertex="1">
          <mxGeometry x="570" y="314" width="60" height="60" as="geometry" />
        </mxCell>
        <mxCell id="e2AFh_ndy3iAakVpakJK-38" value="" style="dashed=0;outlineConnect=0;html=1;align=center;labelPosition=center;verticalLabelPosition=bottom;verticalAlign=top;shape=mxgraph.webicons.json;gradientColor=#DFDEDE" parent="1" vertex="1">
          <mxGeometry x="300" y="140" width="40" height="40" as="geometry" />
        </mxCell>
      </root>
    </mxGraphModel>
  </diagram>
  <diagram id="7YiL6OCpexT1BlgrHoP9" name="Two environments">
    <mxGraphModel dx="1434" dy="725" grid="1" gridSize="10" guides="1" tooltips="1" connect="1" arrows="1" fold="1" page="1" pageScale="1" pageWidth="827" pageHeight="1169" math="0" shadow="0">
      <root>
        <mxCell id="0" />
        <mxCell id="1" parent="0" />
        <mxCell id="FkCqR1jMerOF3k9fk2UQ-5" style="edgeStyle=orthogonalEdgeStyle;rounded=0;orthogonalLoop=1;jettySize=auto;html=1;exitX=0.5;exitY=0;exitDx=0;exitDy=0;entryX=0.5;entryY=1;entryDx=0;entryDy=0;" edge="1" parent="1" source="FkCqR1jMerOF3k9fk2UQ-1" target="FkCqR1jMerOF3k9fk2UQ-3">
          <mxGeometry relative="1" as="geometry" />
        </mxCell>
        <mxCell id="FkCqR1jMerOF3k9fk2UQ-6" value="Push data" style="edgeLabel;html=1;align=center;verticalAlign=middle;resizable=0;points=[];" vertex="1" connectable="0" parent="FkCqR1jMerOF3k9fk2UQ-5">
          <mxGeometry x="-0.2444" y="-1" relative="1" as="geometry">
            <mxPoint as="offset" />
          </mxGeometry>
        </mxCell>
        <mxCell id="FkCqR1jMerOF3k9fk2UQ-7" style="edgeStyle=orthogonalEdgeStyle;rounded=0;orthogonalLoop=1;jettySize=auto;html=1;exitX=0.75;exitY=0;exitDx=0;exitDy=0;entryX=0.25;entryY=1;entryDx=0;entryDy=0;" edge="1" parent="1" source="FkCqR1jMerOF3k9fk2UQ-1" target="FkCqR1jMerOF3k9fk2UQ-4">
          <mxGeometry relative="1" as="geometry">
            <mxPoint x="309" y="410" as="sourcePoint" />
            <mxPoint x="476.5" y="320" as="targetPoint" />
            <Array as="points">
              <mxPoint x="334" y="360" />
              <mxPoint x="499" y="360" />
              <mxPoint x="499" y="320" />
              <mxPoint x="502" y="320" />
            </Array>
          </mxGeometry>
        </mxCell>
        <mxCell id="FkCqR1jMerOF3k9fk2UQ-8" value="publish tested data" style="edgeLabel;html=1;align=center;verticalAlign=middle;resizable=0;points=[];" vertex="1" connectable="0" parent="FkCqR1jMerOF3k9fk2UQ-7">
          <mxGeometry x="-0.0286" y="1" relative="1" as="geometry">
            <mxPoint as="offset" />
          </mxGeometry>
        </mxCell>
        <mxCell id="FkCqR1jMerOF3k9fk2UQ-1" value="BE Test" style="rounded=0;whiteSpace=wrap;html=1;" vertex="1" parent="1">
          <mxGeometry x="244" y="390" width="120" height="60" as="geometry" />
        </mxCell>
        <mxCell id="FkCqR1jMerOF3k9fk2UQ-9" style="edgeStyle=orthogonalEdgeStyle;rounded=0;orthogonalLoop=1;jettySize=auto;html=1;entryX=0.5;entryY=1;entryDx=0;entryDy=0;exitX=0.5;exitY=0;exitDx=0;exitDy=0;" edge="1" parent="1" source="FkCqR1jMerOF3k9fk2UQ-2" target="FkCqR1jMerOF3k9fk2UQ-4">
          <mxGeometry relative="1" as="geometry" />
        </mxCell>
        <mxCell id="FkCqR1jMerOF3k9fk2UQ-10" value="Push data" style="edgeLabel;html=1;align=center;verticalAlign=middle;resizable=0;points=[];" vertex="1" connectable="0" parent="FkCqR1jMerOF3k9fk2UQ-9">
          <mxGeometry x="-0.4537" y="-1" relative="1" as="geometry">
            <mxPoint as="offset" />
          </mxGeometry>
        </mxCell>
        <mxCell id="FkCqR1jMerOF3k9fk2UQ-2" value="BE Prod" style="rounded=0;whiteSpace=wrap;html=1;" vertex="1" parent="1">
          <mxGeometry x="464" y="390" width="120" height="60" as="geometry" />
        </mxCell>
        <mxCell id="zdWdjn96ZQ6-Yqh2MaCA-3" style="edgeStyle=orthogonalEdgeStyle;rounded=0;orthogonalLoop=1;jettySize=auto;html=1;exitX=0.5;exitY=0;exitDx=0;exitDy=0;entryX=0;entryY=0.5;entryDx=0;entryDy=0;" edge="1" parent="1" source="FkCqR1jMerOF3k9fk2UQ-3" target="zdWdjn96ZQ6-Yqh2MaCA-1">
          <mxGeometry relative="1" as="geometry" />
        </mxCell>
        <mxCell id="zdWdjn96ZQ6-Yqh2MaCA-4" value="Download the config file from test GLD" style="edgeLabel;html=1;align=center;verticalAlign=middle;resizable=0;points=[];" vertex="1" connectable="0" parent="zdWdjn96ZQ6-Yqh2MaCA-3">
          <mxGeometry x="-0.3304" relative="1" as="geometry">
            <mxPoint as="offset" />
          </mxGeometry>
        </mxCell>
        <mxCell id="FkCqR1jMerOF3k9fk2UQ-3" value="Glow_CocoTeam_GLD_Test" style="shape=image;html=1;verticalAlign=top;verticalLabelPosition=bottom;labelBackgroundColor=#ffffff;imageAspect=0;aspect=fixed;image=https://cdn0.iconfinder.com/data/icons/logos-brands/24/logo_brand_brands_logos_google_sheets-128.png" vertex="1" parent="1">
          <mxGeometry x="259" y="210" width="90" height="90" as="geometry" />
        </mxCell>
        <mxCell id="zdWdjn96ZQ6-Yqh2MaCA-5" style="edgeStyle=orthogonalEdgeStyle;rounded=0;orthogonalLoop=1;jettySize=auto;html=1;exitX=0.5;exitY=0;exitDx=0;exitDy=0;entryX=1;entryY=0.5;entryDx=0;entryDy=0;" edge="1" parent="1" source="FkCqR1jMerOF3k9fk2UQ-4" target="zdWdjn96ZQ6-Yqh2MaCA-1">
          <mxGeometry relative="1" as="geometry" />
        </mxCell>
        <mxCell id="zdWdjn96ZQ6-Yqh2MaCA-6" value="Download the config file from prod GLD" style="edgeLabel;html=1;align=center;verticalAlign=middle;resizable=0;points=[];" vertex="1" connectable="0" parent="zdWdjn96ZQ6-Yqh2MaCA-5">
          <mxGeometry x="-0.287" y="-1" relative="1" as="geometry">
            <mxPoint x="-1" y="2" as="offset" />
          </mxGeometry>
        </mxCell>
        <mxCell id="FkCqR1jMerOF3k9fk2UQ-4" value="Glow_CocoTeam_GLD" style="shape=image;html=1;verticalAlign=top;verticalLabelPosition=bottom;labelBackgroundColor=#ffffff;imageAspect=0;aspect=fixed;image=https://cdn0.iconfinder.com/data/icons/logos-brands/24/logo_brand_brands_logos_google_sheets-128.png" vertex="1" parent="1">
          <mxGeometry x="479" y="210" width="90" height="90" as="geometry" />
        </mxCell>
        <mxCell id="zdWdjn96ZQ6-Yqh2MaCA-1" value="Unity Editor(Test/Prod)" style="image;aspect=fixed;perimeter=ellipsePerimeter;html=1;align=center;shadow=0;dashed=0;fontColor=#4277BB;labelBackgroundColor=default;fontSize=12;spacingTop=3;image=img/lib/ibm/devops/code_editor.svg;" vertex="1" parent="1">
          <mxGeometry x="384" y="50" width="60" height="60" as="geometry" />
        </mxCell>
        <mxCell id="zdWdjn96ZQ6-Yqh2MaCA-8" value="" style="edgeStyle=orthogonalEdgeStyle;rounded=0;orthogonalLoop=1;jettySize=auto;html=1;" edge="1" parent="1" source="zdWdjn96ZQ6-Yqh2MaCA-7" target="FkCqR1jMerOF3k9fk2UQ-1">
          <mxGeometry relative="1" as="geometry" />
        </mxCell>
        <mxCell id="zdWdjn96ZQ6-Yqh2MaCA-9" value="Push data/publish tested data(recommented)" style="edgeLabel;html=1;align=center;verticalAlign=middle;resizable=0;points=[];" vertex="1" connectable="0" parent="zdWdjn96ZQ6-Yqh2MaCA-8">
          <mxGeometry y="-2" relative="1" as="geometry">
            <mxPoint as="offset" />
          </mxGeometry>
        </mxCell>
        <mxCell id="zdWdjn96ZQ6-Yqh2MaCA-11" value="" style="edgeStyle=orthogonalEdgeStyle;rounded=0;orthogonalLoop=1;jettySize=auto;html=1;entryX=0.5;entryY=1;entryDx=0;entryDy=0;dashed=1;" edge="1" parent="1" source="zdWdjn96ZQ6-Yqh2MaCA-7" target="FkCqR1jMerOF3k9fk2UQ-2">
          <mxGeometry relative="1" as="geometry">
            <mxPoint x="402" y="599" as="targetPoint" />
          </mxGeometry>
        </mxCell>
        <mxCell id="zdWdjn96ZQ6-Yqh2MaCA-12" value="Push data(not recommended)" style="edgeLabel;html=1;align=center;verticalAlign=middle;resizable=0;points=[];" vertex="1" connectable="0" parent="zdWdjn96ZQ6-Yqh2MaCA-11">
          <mxGeometry x="-0.3939" y="-1" relative="1" as="geometry">
            <mxPoint as="offset" />
          </mxGeometry>
        </mxCell>
        <mxCell id="zdWdjn96ZQ6-Yqh2MaCA-7" value="" style="sketch=0;outlineConnect=0;fontColor=#232F3E;gradientColor=none;fillColor=#232F3D;strokeColor=none;dashed=0;verticalLabelPosition=bottom;verticalAlign=top;align=center;html=1;fontSize=12;fontStyle=0;aspect=fixed;pointerEvents=1;shape=mxgraph.aws4.authenticated_user;" vertex="1" parent="1">
          <mxGeometry x="265" y="560" width="78" height="78" as="geometry" />
        </mxCell>
      </root>
    </mxGraphModel>
  </diagram>
</mxfile>
